# xmcd CD database file
# Copyright (C) 1993-1998 Ti Kan
# 
# Track frame offsets:
#     150
#     19355
#     38207
#     59192
#     77007
#     97302
#     115842
#     132077
#     153517
#     169192
#     184857
#     200352
# 
# Disc length: 2818 seconds
# 
# Revision: 1
# Processed by: cddbd v1.4b41PL1 Copyright (c) Steve Scherf et al.
# Submitted via: DiscPlay 4.0.4
# 
DISCID=aa0b000c
DTITLE=Diversos - Duetos
DYEAR=1900
DGENRE=
TTITLE0=Nuvem de Lagrimas
TTITLE1=Cabecinha no Ombro
TTITLE2=Ive Brusse
TTITLE3=Tudo que se quer (All ask of you)
TTITLE4=Tiro de misericordia
TTITLE5=Passara
TTITLE6=Que pena (ela ja nao gosta mais de mim)
TTITLE7=Iolanda
TTITLE8=Sem fantasia
TTITLE9=Vamos falar de Tereza
TTITLE10=Samba em prel dio
TTITLE11=Fogo sobre Terra
EXTD=
EXTT0=
EXTT1=
EXTT2=
EXTT3=
EXTT4=
EXTT5=
EXTT6=
EXTT7=
EXTT8=
EXTT9=
EXTT10=
EXTT11=
PLAYORDER=
